<svg width="20" height="18" viewBox="0 0 20 18" fill="none" xmlns="http://www.w3.org/2000/svg">
<path d="M15 13.99C13.65 13.99 12.8 14.41 12.05 14.79C11.4 15.12 10.87 15.39 10 15.39C9.1 15.39 8.6 15.14 7.95 14.79C7.2 14.41 6.38 13.99 5 13.99C3.62 13.99 2.8 14.41 2.05 14.79C1.62 15.01 1.24 15.2 0.78 15.31C0.33 15.41 0 15.77 0 16.22V16.32C0 16.92 0.56 17.35 1.14 17.23C1.88 17.08 2.44 16.8 2.95 16.54C3.6 16.21 4.12 15.94 5 15.94C5.88 15.94 6.4 16.19 7.05 16.54C7.8 16.92 8.62 17.34 10 17.34C11.38 17.34 12.2 16.92 12.95 16.54C13.6 16.21 14.13 15.94 15 15.94C15.9 15.94 16.4 16.19 17.05 16.54C17.57 16.8 18.13 17.09 18.88 17.24C19.0151 17.2664 19.1543 17.2628 19.2879 17.2294C19.4214 17.196 19.546 17.1338 19.6528 17.047C19.7597 16.9602 19.8461 16.851 19.9061 16.7271C19.9661 16.6032 19.9982 16.4676 20 16.33V16.24C20 15.78 19.66 15.42 19.21 15.32C18.75 15.22 18.38 15.03 17.95 14.8C17.2 14.41 16.35 13.99 15 13.99ZM15 9.54C13.65 9.54 12.8 9.97 12.05 10.34C11.4 10.66 10.87 10.94 10 10.94C9.1 10.94 8.6 10.69 7.95 10.34C7.2 9.96 6.38 9.54 5 9.54C3.62 9.54 2.8 9.97 2.05 10.34C1.62 10.55 1.24 10.75 0.77 10.86C0.33 10.96 0 11.32 0 11.77V11.87C5.71478e-05 12.0082 0.0309224 12.1447 0.0903506 12.2695C0.149779 12.3943 0.236275 12.5042 0.343549 12.5914C0.450822 12.6786 0.576174 12.7407 0.710487 12.7733C0.8448 12.806 0.984697 12.8082 1.12 12.78C1.87 12.63 2.43 12.34 2.95 12.09C3.6 11.74 4.1 11.49 5 11.49C5.9 11.49 6.4 11.74 7.05 12.09C7.8 12.47 8.62 12.89 10 12.89C11.38 12.89 12.2 12.46 12.95 12.09C13.6 11.74 14.1 11.49 15 11.49C15.9 11.49 16.4 11.74 17.05 12.09C17.57 12.35 18.13 12.64 18.88 12.79C19.0159 12.8165 19.156 12.8127 19.2903 12.7788C19.4245 12.7448 19.5496 12.6817 19.6567 12.5938C19.7637 12.5059 19.8499 12.3954 19.9093 12.2703C19.9686 12.1452 19.9996 12.0085 20 11.87V11.78C20 11.32 19.66 10.96 19.21 10.86C18.75 10.76 18.38 10.57 17.95 10.34C17.2 9.96 16.35 9.54 15 9.54ZM17.95 1.46C17.2 1.08 16.37 0.660004 15 0.660004C13.63 0.660004 12.8 1.08 12.05 1.46C11.4 1.78 10.87 2.06 10 2.06C9.1 2.06 8.6 1.81 7.95 1.46C7.2 1.09 6.38 0.660004 5 0.660004C3.62 0.660004 2.8 1.08 2.05 1.46C1.62 1.68 1.24 1.87 0.78 1.98C0.33 2.08 0 2.44 0 2.89V2.96C0 3.56 0.54 4 1.12 3.88C1.87 3.73 2.43 3.44 2.95 3.19C3.6 2.86 4.12 2.59 5 2.59C5.88 2.59 6.4 2.84 7.05 3.19C7.8 3.57 8.62 3.99 10 3.99C11.38 3.99 12.2 3.56 12.95 3.19C13.6 2.87 14.13 2.59 15 2.59C15.9 2.59 16.4 2.84 17.05 3.19C17.57 3.45 18.13 3.74 18.88 3.89C19.0159 3.91652 19.156 3.91268 19.2903 3.87876C19.4245 3.84483 19.5496 3.78166 19.6567 3.69376C19.7637 3.60586 19.8499 3.4954 19.9093 3.37029C19.9686 3.24517 19.9996 3.10848 20 2.97V2.88C20 2.42 19.66 2.06 19.21 1.96C18.75 1.86 18.38 1.68 17.95 1.46ZM15 5.09C13.65 5.09 12.8 5.52 12.05 5.89C11.4 6.24 10.9 6.49 10 6.49C9.1 6.49 8.6 6.24 7.95 5.89C7.2 5.51 6.38 5.09 5 5.09C3.62 5.09 2.8 5.52 2.05 5.89C1.62 6.12 1.25 6.31 0.79 6.41C0.34 6.51 0 6.87 0 7.33V7.42C5.71478e-05 7.55822 0.0309224 7.69469 0.0903506 7.81948C0.149779 7.94427 0.236275 8.05425 0.343549 8.14141C0.450822 8.22856 0.576174 8.29072 0.710487 8.32334C0.8448 8.35597 0.984697 8.35824 1.12 8.33C1.87 8.18 2.43 7.89 2.95 7.64C3.6 7.32 4.13 7.04 5 7.04C5.87 7.04 6.4 7.29 7.05 7.64C7.8 8.02 8.62 8.44 10 8.44C11.38 8.44 12.2 8.01 12.95 7.64C13.6 7.32 14.13 7.04 15 7.04C15.9 7.04 16.4 7.29 17.05 7.64C17.57 7.9 18.13 8.19 18.88 8.34C19.0151 8.36637 19.1543 8.36275 19.2879 8.3294C19.4214 8.29604 19.546 8.23376 19.6528 8.14696C19.7597 8.06016 19.8461 7.95096 19.9061 7.82708C19.9661 7.70319 19.9982 7.56764 20 7.43V7.34C20 6.88 19.66 6.52 19.21 6.42C18.75 6.32 18.38 6.13 17.95 5.9C17.2 5.51 16.35 5.09 15 5.09Z" fill="url(#paint0_linear_27_169)"/>
<defs>
<linearGradient id="paint0_linear_27_169" x1="10" y1="0.660004" x2="10" y2="17.34" gradientUnits="userSpaceOnUse">
<stop stop-color="#FFBF00"/>
<stop offset="1" stop-color="#F2A50C"/>
</linearGradient>
</defs>
</svg>
